<mxfile host="app.diagrams.net" modified="2023-12-17T09:25:09.987Z" agent="Mozilla/5.0 (Windows NT 10.0; Win64; x64) AppleWebKit/537.36 (KHTML, like Gecko) Chrome/119.0.0.0 Safari/537.36" version="22.1.11" etag="XwUQfnaOU5ap8RZtufs9" type="github">
  <diagram name="Strona-1" id="QY2oQ8nfXPsN-1cGs47N">
    <mxGraphModel>
      <root>
        <mxCell id="0" />
        <mxCell id="1" parent="0" />
      </root>
    </mxGraphModel>
  </diagram>
</mxfile>
